# xmcd
#
# Track frame offsets:
#	150
#	18634
#	38016
#	59818
#	75478
#	100302
#	109772
#	124271
#	146658
#	167057
#	182507
#	201331
#
# Disc length: 3037 seconds
#
# Revision: 1
# Processed by: cddbd v1.5PL3 Copyright (c) Steve Scherf et al.
# Submitted via: EasyCDDAExtractor 5.0.6
#
DISCID=a80bdb0c
DTITLE=Party Animals - O.K. Let´s Party
DYEAR=2002
DGENRE=Country
TTITLE0=The Resurrection Shuffle
TTITLE1=Dansing In The Street
TTITLE2=Hot Stuff
TTITLE3=Are You Gonna Go My Way
TTITLE4=Crazy Party Mix
TTITLE5=Too Much Too Young
TTITLE6=Cotton Eye Joe
TTITLE7=Drive My Car ( Baby I Love You)
TTITLE8=Maniac
TTITLE9=Is This The Way To Amarillo
TTITLE10=Take Me Home Country Roads
TTITLE11=Easy Lover
EXTD=
EXTT0=
EXTT1=
EXTT2=
EXTT3=
EXTT4=
EXTT5=
EXTT6=
EXTT7=
EXTT8=
EXTT9=
EXTT10=
EXTT11=
PLAYORDER=
